<?xml version="1.0" encoding="UTF-8"?>
<svg id="Layer_2" data-name="Layer 2" xmlns="http://www.w3.org/2000/svg" xmlns:xlink="http://www.w3.org/1999/xlink" viewBox="0 0 391.69 150.55">
  <defs>
    <style>
      .cls-1 {
        fill: #fff;
      }

      .cls-2 {
        clip-path: url(#clippath);
      }

      .cls-3 {
        fill: #686868;
      }
    </style>
    <clipPath id="clippath">
      <rect class="cls-1" x="120.91" y="-120.44" width="149.87" height="391.43" transform="translate(120.23 270.99) rotate(-89.9)"/>
    </clipPath>
  </defs>
  <g id="Layer_1-2" data-name="Layer 1">
    <g>
      <rect class="cls-1" x="120.91" y="-120.44" width="149.87" height="391.43" transform="translate(120.23 270.99) rotate(-89.9)"/>
      <g class="cls-2">
        <g>
          <path class="cls-3" d="m277.43,75.72c-.87-.67-1.85-1.31-2.82-1.96-4.8,0-9.59-.01-14.39-.02-.22.08-.29.11-.44.21-.82.57-1.6,1.16-2.41,1.73-1.7,0-3.4-.01-5.09-.01-.14,0-.31,0-.45,0,.05-.05.25-.17.4-.21.38-.37,1.08-.74,1.61-1.09.12-.08.24-.24.37-.33.29-.2.84-.45,1-.66.08-.03.19-.06.25-.09.67-.49,1.49-.96,2.11-1.42.05-.12.27-.19.38-.28,0-.02-.01-.03-.02-.05.23-.07.42-.25.51-.33.01-.01.22-.08.25-.09.1-.05.16-.18.24-.24.01-.01.23-.08.25-.09.27-.16.6-.5.87-.66.22-.14.3-.18.49-.33.01-.01.23-.08.26-.09.04-.02.22-.2.24-.24.08-.03.18-.06.25-.09,0,0,.23-.23.24-.24.19-.16.49-.23.62-.43.09-.03.18-.06.25-.09.04-.02.21-.2.23-.24.09-.03.2-.05.25-.09.24-.19.56-.5.87-.66.02-.01.24-.07.27-.09.34-.24.63-.5,1.02-.73,1.7,0,3.4,0,5.11,0,.09,0,.19,0,.28,0,.84.59,2.02,1.35,2.89,1.92,3.43,2.25,6.72,4.55,10.15,6.81.02.01.25.2.27.22h-6.31Zm-14.72-3.6c3.26,0,6.52.01,9.78,0l-.31-.11s.01-.03.02-.05c-.28-.22-.69-.56-1-.76-.03-.02-.24-.08-.26-.1-.28-.2-.57-.52-.86-.71-.11-.07-.27-.13-.37-.19-.74-.5-1.47-1.08-2.18-1.6-.59.3-1.22.82-1.67,1.17-.05.04-.16.06-.26.09-.04.05-.07.09-.11.15l-.13.04s.01.03.02.05c-.18.1-.31.17-.53.28,0,.02.01.03.02.05-.18.11-.42.26-.48.38-.1.03-.19.05-.25.09-.28.2-.98.8-1.39.95,0,.02.02.03.02.05-.02.04-.18.12-.26.14,0,.02-.06.06,0,.07.06,0,.12,0,.18,0"/>
          <path class="cls-3" d="m84,75.38h-.43s.02-8.93.02-8.93l20.89.04.14.05c.29,0,.56,0,.85,0,.04.01.08.03.12.05.1,0,.69.04.74.05.33.07.7.12.99.2.25.07.48.17.68.26.13.06.3.17.38.24-.05.06.15.24.24.29,0,.06,0,.13,0,.19.02,0,.05.02.07.03.02,0,.04.01.06.02,0,.55-.01,1.11,0,1.66,0,.06-.06.27-.13.33-.15.13-.29.26-.51.38-.21.11-.51.22-.8.31-.33.09-.87.17-1.24.23-.31-.03-.55.06-.85.08.71.05.66.08,1.22.16.07.01.16,0,.23,0,.23.09.51.12.76.19s.46.18.68.27c.09.04.45.28.5.33-.03.08.13.23.24.29,0,.68,0,1.36,0,2.04-.04.02-.09.03-.13.05-.04.09-.05.15-.11.24-.07.09-.22.17-.38.24-.3.12-.57.25-.92.35-.19.05-.58.13-.87.19-.34.05-.64.06-.99.1l-.13.05c-.53.01-.86.08-1.36.09-6.66,0-13.31-.02-19.97-.03m4.9-5.36c4.44.01,8.89.05,13.34.02.25,0,.85-.11,1.07-.15l-.02-.05c.1-.03.2-.07.29-.11-.03-.04-.05-.09-.03-.13.02,0,.04-.02.06-.02l.05-.02c.01-.35.02-.7.01-1.04-.02,0-.04-.01-.06-.02-.02,0-.03-.02-.05-.03.01-.05-.07-.21-.13-.24-.15-.06-.53-.14-.69-.17-.15-.03-.33-.04-.5-.04-4.44-.01-8.88-.01-13.32-.03-.02.68-.02,1.36-.02,2.04m.01,3.76l12.58.02s.09-.03.13-.05h.86s.08-.03.11-.05h.14s.08,0,.12,0c.09,0,.17-.02.25-.04.02,0,.39-.15.43-.17.1-.04.12-.17.09-.23l.17-.05c0-.35,0-.7,0-1.04-.02-.09-.26-.31-.37-.38-.02-.01-.04-.02-.06-.03-.09-.03-.28-.04-.37-.1-.42-.02-1.03-.09-1.49-.1-4.2-.04-8.4,0-12.59-.02.02.72.03,1.44,0,2.16,0,.03,0,.05.01.08"/>
          <path class="cls-3" d="m373.33,68.48c-.24-.06-.85-.14-1.12-.19-.27-.06-.82-.25-1.05-.36-.03-.01-.46-.3-.5-.33-.06-.03-.14-.19-.12-.24-.04-.02-.08-.03-.11-.05,0-.22-.1-.45,0-.66.03-.07.22-.29.35-.38.2-.13.85-.38,1.19-.5.1-.03.75-.17.87-.19h.23c.19-.03.3-.08.52-.09.55,0,1.07,0,1.61,0,.04.02.08.03.12.05.39,0,.69.03.99.09.45.13.85.27,1.31.41.07.09.3.21.5.29v.09c.11.03.2.09.25.15.07.09.14.51.12.62-.04.02-.09.03-.13.05,0,.06.02.13,0,.19-.03.12-.2.23-.38.33-.33.18-.7.34-1.17.49-.15.05-.43.12-.62.15-.08.01-.16,0-.25,0-.03.02-.5.11-.5.11-.7,0-1.41-.01-2.11-.01m.5-.29c.15.03.94.01,1.12,0,.21-.02,1.09-.14,1.24-.19.33-.09.6-.21.87-.33.02,0,.04-.02.05-.02,0,0,.1-.1.25-.14.06-.09.1-.16.14-.25l.12-.04c.04-.08.01-.33,0-.43-.03-.07-.4-.37-.5-.43-.13-.07-.76-.32-.92-.35-.41-.09-.86-.14-1.36-.19-.22-.02-.65-.01-.87,0-.04.02-.08.03-.12.05-.36-.02-.67.04-.99.09-.4.08-.65.2-.99.32-.03.01-.42.25-.44.27.06.08-.17.22-.23.28-.04.06-.03.24-.01.29.02,0,.05.01.07.02.02,0,.04.02.07.03,0,.06,0,.13,0,.19.19.08.24.22.37.29.01,0,.03.02.05.02.25.09.49.19.74.29.14.05.44.11.62.14.16-.02.6.06.74.09"/>
          <path class="cls-3" d="m118.1,75.45c-.14,0-.29,0-.44,0l.02-8.92c.07,0,.13,0,.19,0,7.85.06,15.76.03,23.62.04v1.57s-18.36-.04-18.36-.04v1.95s10.79.02,10.79.02c.01.45,0,.9,0,1.35,0,.07,0,.14-.01.21l-10.79-.02v2.13c.07,0,.13,0,.19,0,6.11.05,12.29.03,18.41.03,0,.02.01.05.01.08,0,.54-.02,1.09,0,1.64-7.87-.01-15.75-.03-23.63-.04"/>
          <path class="cls-3" d="m203.1,75.59c.3-2.97.08-5.95.02-8.92h5.58s0,8.93,0,8.93h-5.6Z"/>
          <path class="cls-3" d="m324.46,75.8c-.19,0-.38,0-.57,0,.02-2.9,0-5.81.02-8.71,0-.07,0-.15,0-.22,5.52.02,11.03.02,16.55.03.04.02.08.03.12.05.33,0,.66-.01.99,0,.6.02,1.23.11,1.84.09.05.02.1.04.14.05.32.02.55.03.87.05.05.02.08.03.12.05.22.01.4.02.62.05.05,0,.09.03.12.05.23.01.4,0,.62.04.37.06,1.15.2,1.49.29.42.11.91.23,1.31.35.51.15,1.26.47,1.6.67.12.08.31.22.51.29.1.13.4.36.61.48-.02.03.09.18.12.19.04.02.09.03.14.05.04.1.07.18.11.29.05.02.09.03.13.05-.01.04-.01.1-.01.14.04.01.09.03.13.05.09.25.21.5.25.76.04.27.03.54,0,.81-.03.24-.19.72-.39.95-.17.19-.29.39-.49.57-.22.19-.45.38-.74.57-.23.15-.58.32-.87.47-.23.11-.77.29-1.06.41-.15.06-.31.13-.5.18-.47.13-.96.27-1.49.38-.48.09-1.26.21-1.74.28-.19-.02-.82.07-.99.09-.12.01-.25,0-.37,0-.04.02-.08.03-.12.05-.39.03-1.08.05-1.49.05-.04.01-.08.03-.12.04-.37,0-.75,0-1.12,0-.07,0-.2.02-.25.05-5.37,0-10.75-.02-16.12-.02m5.03-1.7h9.11c.14-.04,1.69-.06,1.98-.07.04-.02.09-.03.12-.05.14,0,.36,0,.5,0,.33-.03,1.36-.2,1.61-.18.04-.02.08-.04.12-.06.04,0,.08,0,.12,0,.03,0,.42-.08.5-.09.07-.01.57-.17.62-.19.04,0,.08,0,.12,0,.49-.19.92-.35,1.31-.55.13-.08.43-.31.49-.38.09-.1.17-.32.25-.43.04-.02.08-.03.12-.05,0-.1,0-.18-.01-.28l.14-.06c0-.27,0-.54,0-.81-.04-.02-.09-.04-.14-.06.01-.1.02-.18.01-.28-.04-.02-.1-.04-.14-.05,0-.02.02-.17,0-.18-.06-.05-.27-.23-.22-.29-.17-.13-.32-.25-.51-.38-.25-.15-.54-.3-.85-.43-.22-.1-.79-.24-1.07-.31-.22-.05-.77-.16-.99-.19-.33-.05-.65-.08-.99-.09-.04,0-.09,0-.12,0-.04-.02-.08-.03-.12-.05-.04,0-.08,0-.12,0-.48,0-.5-.04-.87-.04-3.66-.04-7.32-.01-10.98-.02v5.56Z"/>
          <path class="cls-3" d="m360.49,75.86c-.01-2.92,0-5.84,0-8.76,0-.05,0-.12,0-.17h5.58s0,8.94,0,8.94h-5.58Z"/>
          <path class="cls-3" d="m182.05,75.55s-.04-.04-.03-.07c.16-2.38.01-4.81.03-7.2l-21.09-.04-.02,7.26h-5.46s.02-7.27.02-7.27c.03,0-.3,0-.31,0-3.12.1-7.14-.01-10.36-.02v-1.67s53.45.1,53.45.1v1.66c-3.53,0-7.06,0-10.6-.02h-.19s0,7.26,0,7.26h-5.44Z"/>
          <path class="cls-3" d="m242.36,75.66c-.07-.05-.28-.05-.37-.1-.22-.1-.48-.2-.74-.29-.24-.07-.62-.17-.87-.24-4.69-1.67-10.08-3.26-14.94-4.85-.64-.21-1.19-.46-1.79-.69-.11-.04-.11.02-.06.07.28.32.2.81.25,1.19.2,1.57,0,3.28-.02,4.87h-5.09c.02-2.91,0-5.82.02-8.72,0-.07,0-.15,0-.22h3.89c.43.13,1.09.4,1.5.54.69.23,1.66.48,2.36.71,4.32,1.41,8.75,2.81,13.01,4.21l1.91.73c.03-.09.09-.23.02-.33-.19-.28-.15-.51-.13-.81,0-.04-.05-.08-.12-.1v-4.92s5.09.01,5.09.01c0,.09,0,.17,0,.26.03,2.89-.01,5.78-.02,8.66h-3.91Z"/>
          <path class="cls-3" d="m309.21,75.78c-3.01-1.07-6.01-2.14-8.93-3.25-.04-.02-.41-.1-.5-.1-1.63,0-3.27,0-4.9,0v3.32s-5.47-.01-5.47-.01l.02-8.92c.14,0,.29,0,.44,0,6.82.03,13.65.04,20.46.04.1,0,.2.02.25.05.25,0,.5,0,.74,0,.32,0,.56.1.99.09.38.08.75.16,1.12.24.01,0,.42.16.44.17.08.04.44.28.5.33-.03.07.12.23.22.29,0,.11,0,.22.01.33l.11.04c.03.84.01,1.68,0,2.52-.02,0-.04.02-.06.03-.02,0-.04.01-.07.02,0,.09.05.19,0,.28-.05.1-.22.33-.37.43-.23.15-.67.34-1.06.45-.31.08-.67.13-.99.19-.19-.02-.81.07-.99.09-.18.01-.9.01-1.1,0-.03,0-.05.02-.08.03-.02,0-.04.02-.06.03h-3.37c2.55.78,5.46,1.63,7.83,2.47.06.02.66.16.74.19.21.08.39.17.62.24.14.04.6.14.74.19.21.07.43.16.61.24h-7.92Zm-14.32-4.93c4.19,0,8.39.04,12.58.02.35,0,1.08-.08,1.36-.14.16-.03.42-.24.45-.31.22-.4.11-.94.12-1.37l-.07-.02s-.04-.02-.06-.03c-.02-.05-.02-.14.01-.19-.02,0-.05-.01-.07-.02-.02,0-.04-.02-.07-.03-.04-.05-.07-.09-.11-.14-.02,0-.04-.02-.07-.02-.11-.04-.29-.05-.37-.09-.48-.03-.99-.09-1.49-.1-4.07-.03-8.14-.01-12.21-.02v2.47Z"/>
          <path class="cls-3" d="m375.32,67.63c-.3-.1-.82-.33-1.05-.46-.03-.02-.09.04-.13.05,0,.09.02.2,0,.28-.01.03-.06.07-.12.09-.02,0-.04.02-.06.03-.32-.01-.61,0-.93,0,0-.45.02-.9-.02-1.34.73,0,1.46-.02,2.19,0,.07,0,.65.16.67.22.02.13,0,.25,0,.38-.16.06-.32.13-.49.19.2.12.73.34,1.04.44.01,0-.16.09-.23.11h-.87Zm-1.18-.76h.44c.14-.05.25-.11.37-.17-.06-.02-.44-.11-.49-.12-.03,0-.3,0-.3,0,0,.1,0,.19-.01.29"/>
          <path class="cls-3" d="m17.82,58.34c.61-.04,1.23-.03,1.85-.03,12,.02,23.99.02,35.99.04,6.28,4.18,12.61,8.35,18.9,12.52-2.25,1.55-4.62,3.08-6.92,4.63-2.86,1.91-5.73,3.81-8.6,5.72-1.12.73-2.16,1.47-3.33,2.19-12.56-.03-25.13-.03-37.69-.05-6.28-4.14-12.53-8.29-18.8-12.44-.22-.1.04-.2.15-.29,3.56-2.35,7.09-4.71,10.64-7.07,2.6-1.74,5.25-3.47,7.81-5.22m2.55,1.59c-5.45,3.59-10.83,7.2-16.27,10.8-.26.11.09.23.21.33,5.39,3.56,10.75,7.11,16.13,10.67,10.95.02,21.9.02,32.86.04,5.47-3.62,10.91-7.24,16.35-10.87-.17-.26-.69-.48-1-.73-5.16-3.4-10.26-6.81-15.45-10.21-10.94-.03-21.89-.02-32.83-.04"/>
          <path class="cls-3" d="m23.12,61.77c9.12.01,18.24.01,27.36.03.87.59,1.76,1.18,2.67,1.77-2.4-.23-4.87-.33-7.34-.33-8.28-.01-16.56,0-24.84-.03.7-.48,1.43-.96,2.15-1.44"/>
          <path class="cls-3" d="m9.84,70.6c2.7-1.79,5.4-3.58,8.07-5.37.08,2.22.02,4.44.04,6.66-.03,1.42.1,2.85.05,4.27-.02.1-.08.19-.13.29-.29-.29-.76-.54-1.14-.81-2.37-1.56-4.72-3.13-7.1-4.69-.27-.12.08-.23.2-.34"/>
          <path class="cls-3" d="m27.39,65.77c5.52,0,11.05.01,16.57.02,1.65,0,3.36.04,4.88.31,1.07.19,1.79.6,1.98,1.03.22.52.15,1.11-.69,1.55-.61.34-1.64.51-2.65.6-1.88.16-3.82.11-5.73.12-4.78,0-9.56,0-14.34-.01,0-1.2-.01-2.41-.01-3.61"/>
          <path class="cls-3" d="m60.1,68.19c1.31.84,2.55,1.69,3.84,2.52.07.07.26.14.13.22-.94.65-1.96,1.29-2.89,1.94-1.08-1.12-3.81-1.86-6.66-2.25,2.66-.44,5.06-1.3,5.58-2.43"/>
          <path class="cls-3" d="m27.41,72.19c5.46,0,10.92,0,16.38.01,1.77,0,3.58.05,5.26.27,1.39.18,2.54.6,2.91,1.12.41.59.29,1.26-.72,1.76-.77.37-2.01.58-3.24.68-2.24.2-4.55.13-6.83.14-.68.01-1.36.02-2.04.01-3.88,0-7.75-.02-11.63,0-.05-.1-.09-.19-.09-.29,0-1.24,0-2.47,0-3.71"/>
          <path class="cls-3" d="m47.64,78.72c1.73-.02,3.45-.11,5.14-.26-.77.48-1.46.98-2.23,1.46-9.01.02-18.02-.03-27.03-.01-.09,0-.27-.01-.36-.01-.54-.4-1.17-.78-1.75-1.17,8.75,0,17.49.03,26.23,0"/>
        </g>
      </g>
    </g>
  </g>
</svg>