<?xml version="1.0" encoding="UTF-8"?>
<svg id="Layer_2" data-name="Layer 2" xmlns="http://www.w3.org/2000/svg" viewBox="0 0 970.28 289.48">
  <defs>
    <style>
      .cls-1 {
        fill: #717171;
        fill-rule: evenodd;
      }
    </style>
  </defs>
  <g id="Layer_1-2" data-name="Layer 1">
    <g>
      <path class="cls-1" d="m621.49,289.48c-29.67-6.62-55.81-20.75-83.73-31.1-9.38-3.48-19.05-6.34-28.72-9.13-1.62-.47-4.15.47-5.81,1.39-6.33,3.51-12.08,8.08-18.81,10.72-6.95,2.72-14.76,2.62-21.9-.73-6.68-3.14-7.59-8.2-2.29-12.94,7.51-6.72,17.34-7.99,27.26-8.74,4.23-.32,8.51-.05,12.84-.05,9.25-13.98,15.91-28.84,21.71-44.06,4.55-11.93,9.22-23.82,13.79-35.74.79-2.05,1.82-3.25,4.67-3.1,4.87.25,9.77.07,15.01.07-.45,1.62-.83,3.02-1.3,4.7,8.74-3.73,17.25-6.34,26.89-4.93,14.22,2.08,21.45,11.61,17.58,24.06-.91,2.93-2.23,5.82-3.83,8.51-1.53,2.57-3.66,4.85-5.79,7.6,5.12,3,10.36,5.89,15.37,9.07,5.47,3.47,10.88,7.07,16.05,10.88,8.35,6.14,17.64,5.63,27.23,3.53,4.02-.88,7.99-1.98,12.18-2.36-9.96,5.58-20.07,10.25-32.4,10.17-10.87-.07-19.64-3.69-27.71-9.76-5.48-4.13-11.53-7.66-17.1-11.69-2.81-2.03-5-1.91-7.79-.05-5.39,3.59-11.57,4.81-18.26,4.29-6.06-.47-10.72-4.41-10.84-9.32-.12-4.63,4.86-9.06,10.91-9.12,4.21-.04,8.52.34,12.62,1.17,2.83.57,4.77.41,5.58-2.09,2.04-6.3,4.83-12.58,5.54-19.02,1-9.15-7.56-12.32-16.83-10.16-7.46,1.74-12.99,5.51-15.67,13.22-5.94,17.09-11.98,34.29-22.17,49.91-3.36,5.16-7.35,9.99-11.17,15.11,7.91,1.91,15.65,4.08,23.55,5.61,14.54,2.82,27.72,8.56,40.87,14.43,15.65,6.99,31.17,14.21,46.99,20.89,12.88,5.44,24.94,2.54,36.5-3.95,11.18-6.28,17.67-15.73,22.73-26.07,7.01-14.31,13.55-28.81,19.73-43.67-6.15,2.33-11.94,4.51-18.26,2.44-6.7-2.2-7.97-7.77-9.64-13.44-5.12,3.37-9.98,6.77-15.08,9.84-2.81,1.69-5.88,3.37-9.11,4.1-5.92,1.34-10.82-.53-13.2-4.48-6.7,1.64-12.7,3.64-18.89,4.46-5.51.72-9.58-2.34-11.83-6.76-3.81-7.5-3.36-15.18.51-22.45,8.36-15.74,22.91-23.54,42.11-24.59,6.73-.37,13.51-.06,20.89-.06-3.24,8.4-6.29,16.3-9.33,24.21-2.29,5.96-4.64,11.9-6.75,17.9-.46,1.32-.06,2.88-.05,4.32,1.45-.22,3.23-.04,4.3-.73,5.3-3.4,10.74-6.72,15.45-10.71,1.91-1.62,2.04-4.87,3.08-7.34,5.3-12.65,14.41-22.34,29.53-25.3,10.95-2.14,22.42-2.2,34.85-3.3-3.46,8.97-6.38,16.59-9.35,24.2-7.27,18.64-14.25,37.34-24.55,54.95-11.01,18.83-24.7,35.18-45.93,45.86-9.14,4.6-18.92,7.23-28.98,9.35-4.43,0-8.85,0-13.27,0Zm101.98-129.35c-.28-.34-.56-.67-.84-1.01-2.87.93-5.9,1.58-8.59,2.84-11.19,5.23-21.45,23.64-19.12,34.72.45,2.14,2.39,4.93,4.42,5.63,1.72.6,5.48-.8,6.73-2.35,2.67-3.3,4.69-7.14,6.27-10.99,3.92-9.55,7.44-19.22,11.13-28.84Zm-70.79-.85c-8.27,1.16-14.43,4.06-19.1,9.59-6.07,7.2-8.52,15.47-9.53,24.21-.42,3.64-.94,7.48,3.81,9.4,2.84,1.14,7.42-1.46,10.05-5.43.24-.36.54-.7.69-1.09,4.62-12,9.22-24.02,14.07-36.68Zm-157.52,86.56c-2.35-.36-4.35-.7-6.37-.96-7.47-.96-14.89-.57-21.58,2.6-2.74,1.3-6.4,4.13-6.4,6.27,0,3.7,4.64,4.81,8.4,5.32,12.78,1.73,18.85-1.37,25.96-13.23Zm74.33-47.5c-6.06-.57-11.09-1.4-16.09-1.29-1.52.03-3.77,2.56-4.13,4.21-.22,1.01,2.26,3.22,3.96,3.71,6.37,1.84,10.83.11,16.26-6.63Z"/>
      <path class="cls-1" d="m970.28,96.9c-8.97,27.93-32.7,44.9-57.83,60.35-7.95,4.89-12.36,10.07-13.67,18.39-1.22,7.75-4.33,15.29-2.47,23.28,1.56,6.7,5.42,8.33,12.11,5.01,10.43-5.18,15.67-13.77,19.24-23.44,2.7-7.32,5.43-14.63,8.35-21.88.42-1.03,1.91-2.37,2.98-2.43,5-.26,10.02-.11,15.74-.11-5.92,15.84-11.64,31.15-17.39,46.54,4.96,2.12,8.17-.26,11.52-1.84,1.37-.65,2.5-1.73,3.91-2.28.57-.23,1.91.22,2.3.73.35.46.15,1.85-.29,2.08-5.79,2.98-11.33,6.79-17.59,8.49-8.41,2.28-13.38-1.51-15.77-10.17-3.15,2.32-6.11,4.8-9.41,6.84-5.5,3.4-11.41,5.36-18.03,2.28-7.1-3.31-11.22-8.62-11.7-15.64-.48-7.12-.11-14.29-.11-21.97-3.58.61-7.89,1.34-11.5,1.95-2.6,6.7-4.44,13.39-7.73,19.45-4.36,8.02-11.73,14.09-21.1,17.07-10.24,3.26-21.66,1.4-26.42-11.99-6.12,3.76-12.04,8.19-18.75,11.22-3.59,1.62-8.61,1.38-12.87.97-4.23-.41-7.49-5.74-6.14-10.5,2.49-8.79,5.76-17.41,8.75-26.08.88-2.54,1.99-5.02,2.86-7.57.85-2.51-.18-3.99-3.23-3.41-5.67,1.08-10.6,2.98-12.67,8.58-4.81,13.03-9.86,25.99-14.85,39.09h-18.98c3.03-8,5.91-15.67,8.84-23.32,3.46-9.02,7.08-17.99,10.35-27.06.91-2.52,1.98-3.7,5.13-3.53,4.71.25,9.46.06,14.4.06-.17,1.38-.31,2.56-.48,3.97.68-.09,1.08-.09,1.45-.19,4.43-1.26,8.75-3.01,13.29-3.7,8.46-1.28,16.71,5.06,13.11,15.37-3.13,8.96-6.61,17.83-9.87,26.76-.56,1.54-.77,3.19-1.28,5.45,2.19-.16,3.95.16,5.12-.44,7.37-3.79,14.15-7.71,16.42-16.14,3.62-13.45,11.79-24.31,26.56-30.17,9.41-3.74,20.88-.93,24.94,5.97.93,1.58,1.34,3.39,2.39,6.17,3.92-.72,8.43-1.05,12.44-2.51,1.71-.62,2.63-3.48,3.46-5.47,4.54-10.85,7.8-22.26,13.64-32.51,10.37-18.19,26.6-31.55,47.97-39.44,4-1.48,8.42-2.22,12.73-2.82,4.87-.69,8.3,1.38,10.13,5.49,0,1.69,0,3.38,0,5.07Zm-66.14,60.58c1.86-.83,2.53-1.08,3.14-1.42,19.06-10.6,35.43-23.79,48.38-40.23,4.73-6,8.96-12.3,9.85-19.76.71-5.96-2.99-8.15-8.93-5.31-4.23,2.02-8.37,4.35-12.04,7.08-13.8,10.24-23.33,23.28-30.3,37.89-3.29,6.89-6.43,13.84-10.09,21.74Zm-48.35,1.43c-2.19.65-3.7.88-4.97,1.5-13.45,6.51-23.05,28.68-18.07,41.56,1.37,3.54,4.64,4.76,9.08,3.82,11.75-2.49,25.38-21.82,23.32-32.57-10.32-3.23-12.94-6.76-9.36-14.31Zm8.49,9.43c.36-.21.71-.41,1.07-.62-.72-1.5-1.11-3.28-2.29-4.38-.76-.71-2.7-.42-4.11-.58.34,1.14.31,2.59,1.11,3.36,1.07,1.02,2.78,1.51,4.21,2.23Z"/>
      <path class="cls-1" d="m606.63,87.7c1.33-1.39,2.49-2.96,4.03-4.14,13.7-10.47,23.83-22.98,28.07-38.85,2.18-8.15,2.93-16.23-.84-24.35-6.36-13.66-19.27-16.65-33.76-14.04-19.78,3.56-31.07,16.55-40.42,30.96-11.07,17.05-18.08,35.68-24.72,54.36-10.67,30.04-21.58,60-38.08,87.99-12.59,21.35-29.89,39.01-54.7,49.62-21.57,9.23-44.49,11.65-68.09,8.27-6.79-.97-13.45-2.66-20.23-3.7-1.72-.26-4.09.25-5.48,1.19-17.68,11.95-37.76,19.2-59.13,23.65-19.89,4.14-40.07,5.82-60.53,3.93-14.41-1.33-28.95-1.88-43.25-3.8-12.85-1.72-25.5-4.71-38.18-7.38-14.03-2.96-28.04-6.01-41.96-9.34-11.95-2.86-23.82-6.01-35.61-9.34-3.97-1.12-6.85-1.17-10.04,1.74-8.35,7.6-18.22,13.12-30.08,15.33-9.74,1.82-19.12,1.27-27.48-4.15-7.59-4.92-8.14-11.35-1.79-17.46,6.83-6.58,15.62-9.48,25.25-9.5,11.48-.03,22.97.89,34.45,1.52,2.44.13,4.1-.2,5.3-2.38,7.72-14.05,16.51-27.71,23.17-42.14,14.26-30.92,27.43-62.23,41.32-94.01-22.14-7.96-39.77-20.3-54.41-36.09-.34-.37.02-1.25.1-2.92,1.99,1.27,3.49,1.91,4.52,2.93,14.26,14.01,30.21,25.91,50.83,32.38,4.46-7.34,8.86-15.03,13.71-22.48,11.74-18.04,25.37-34.49,46.19-45.34,15.02-7.82,30.79-11.94,48.09-9.41,20.01,2.93,30.43,17.02,27.25,33.17-3.23,16.43-15.27,27.66-29.31,37.25-17.06,11.67-36.57,17.63-58.22,17.2-8.17-.16-16.34-.87-24.49-1.47-2.13-.15-3.2-.01-4.16,2.14-7.92,17.67-15.52,35.48-24.33,52.8-10.82,21.3-22.16,42.43-36.87,61.92-4.54,6.02-9.38,11.85-14.55,18.35,6.77,1.64,13.31,3.36,19.91,4.8,15.39,3.34,30.75,6.85,46.26,9.71,13.68,2.52,27.49,4.56,41.32,6.29,28.64,3.58,57.28,5.7,86.32,2.99,23.34-2.18,45.79-6.42,66.95-15.56,1.1-.47,2.1-1.11,2.73-1.45-10.04-6.65-19.97-13.29-30.01-19.79-.94-.61-2.78-.79-3.89-.41-16.66,5.61-23.87-3.96-23.58-15.34.39-15.04,9.76-25.24,24.06-32.15,12.93-6.26,27.07-5.25,41.82-5.03-2.49,6.49-4.86,12.65-7.21,18.81-3.03,7.96-6.1,15.9-9.02,23.89-.47,1.28-.21,2.78-.29,4.18.4.2.81.41,1.21.61,3.86-2.56,7.73-5.11,11.59-7.66.38.44.77.89,1.15,1.33-3.6,5.17-8.7,9.24-14.57,12.17-6.99,3.48-12.69-.17-17.57-5.37-.38.7-.76,1.4-1.14,2.09,5.8,4.07,11.57,8.18,17.42,12.2,1.35.93,3.12,1.38,4.43,2.33,7.73,5.65,14.55,4.58,22.5-.55,20.67-13.33,34.68-30.66,41.42-52.43,4.72-15.26,3.87-30.4-7.77-43.24-10.69-11.8-25.75-15.85-42.19-14.44-20.01,1.72-33.43,12.75-43.99,27.09-1.27,1.73-2.53,3.46-4.04,5.54-3.21-3.37-5.87-6.42-8.83-9.23-3.75-3.56-8.09-5.62-13.84-3.71-5.91,1.96-8.3,5.9-7.7,11.14,1.29,11.3,3.06,22.56,4.41,33.85,1.04,8.7,1.18,17.2-3.77,25.41-7.51,12.46-24.17,12.94-33.53,3.8-.84-.82-1.8-1.54-2.55-2.17-5.55,2.44-10.82,5.13-16.41,7.12-9.09,3.22-16.83.86-17.4-9.7-4.97,2.88-9.73,5.61-14.47,8.38-7.77,4.55-19.87,3.44-22.53-5.17-4.7,2.17-9.3,4.72-14.24,6.48-11.78,4.19-20.44-1.7-17.99-12.76,1.97-8.88,5.65-17.46,8.7-26.14,1.63-4.64,3.55-9.21,5.34-13.82h18.4c-5.9,15.74-11.68,31.2-17.48,46.67,6.13,1.62,14.45-2.57,17.21-8.68,2.92-6.48,5.37-13.14,7.9-19.76,2.07-5.43,3.88-10.94,6.04-16.34.36-.89,1.87-1.95,2.9-1.99,5.15-.2,10.32-.09,16.08-.09-5.88,15.89-11.56,31.23-17.26,46.64,6.66,1.31,16.9-3.09,20.52-9.5,3.86-6.82,6.5-14.2,9.54-21.38,2.16-5.1,4.1-10.28,6.18-15.54h17.86c-5.05,15.9-12.73,30.9-17.05,46.92,6.19.86,9.17-.45,19.9-8.32,1.18,1.96,2.32,3.86,3.46,5.76,1.81,3.02,4.61,4.84,8.39,5.44,4.62.73,8.7-1.22,9.63-5.29.74-3.23,1-6.74.48-9.99-1.67-10.41-3.99-20.73-5.7-31.14-1.44-8.71-.2-17.18,5.62-24.56,10.05-12.74,26.8-13.77,38.91-2.55.87.8,1.43,1.86,1.63,2.13,7.11-6.08,13.2-12.12,20.21-17.13,14.57-10.41,31.12-12.77,49.31-8.93,16.08,3.39,27.27,11.31,33.32,25,6.14,13.88,5.32,27.85.08,41.67-8.46,22.32-18.96,35.38-43.65,55.01,4.48,1.23,8.44,2.78,12.58,3.38,15.15,2.18,30.43,3.43,45.53.05,15.28-3.42,27.91-10.87,38.83-21.04,11.32-10.54,18.49-23.22,25.55-36.09,9.38-17.09,14.71-35.4,20.95-53.45,9.29-26.87,17.52-54.13,33.96-78.53,11.19-16.62,25.52-30.39,46.09-37.97,9.01-3.32,18.28-5.96,28.23-5.94,19.29.03,32.93,11.86,33.96,28.92,1.07,17.91-7.48,32.35-19.91,45.38-4.34,4.56-9.55,8.46-14.45,12.59-.8.68-2.02.96-3.05,1.42-.42-.42-.84-.84-1.25-1.26Zm-449.57-5.3c15.74,3.71,30.86,3.44,45.94.53,16.06-3.1,30.04-9.86,42.23-19.68,9.98-8.04,17.89-17.1,20.5-29.25,2.36-11-2.19-20.84-12.53-25.78-6.7-3.2-13.96-3.88-21.48-3.15-12.14,1.18-22.36,6.06-31.4,13-14.9,11.44-24.99,25.96-32.75,41.87-3.59,7.37-6.95,14.83-10.52,22.46ZM60.1,229.23c-3.04-.54-5.03-.86-6.99-1.25-12.81-2.59-25.64-4.08-38.66-1-5.58,1.32-9.66,4.52-10.01,8.2-.49,5.09,3.12,7.41,7.65,9.36,9.82,4.23,19.26,2.28,28.51-1.31,7.63-2.96,14.22-7.23,19.5-14Zm270.25-69.83c-3.94,1.03-6.68,1.46-9.14,2.45-9.83,3.94-14.5,11.65-17.08,20.3-1.55,5.18-2.29,10.72-2.15,16.07.13,4.9,4.46,6.34,8.91,3.39,2.07-1.37,4.29-3.23,5.13-5.29,4.82-11.78,9.25-23.69,14.34-36.92Z"/>
      <path class="cls-1" d="m951.1,152.61c-5.49-.04-10.14-4.22-10.17-9.13-.03-5.07,4.84-9.44,10.43-9.36,5.27.08,10.23,4.52,10.29,9.2.06,4.93-4.95,9.34-10.54,9.29Z"/>
      <path class="cls-1" d="m230.86,152.6c-5.2-.08-10.15-4.62-10.15-9.31,0-4.66,5.09-9.16,10.32-9.14,5.51.01,10.55,4.66,10.33,9.51-.21,4.68-5.31,9.02-10.51,8.94Z"/>
    </g>
  </g>
</svg>