<?xml version="1.0" encoding="UTF-8"?>
<svg id="Layer_2" data-name="Layer 2" xmlns="http://www.w3.org/2000/svg" viewBox="0 0 426.14 195.43">
  <defs>
    <style>
      .cls-1 {
        fill: #676767;
      }
    </style>
  </defs>
  <g id="Layer_1-2" data-name="Layer 1">
    <g>
      <path class="cls-1" d="m314.28,127.56c-2.73.21-11.61.54-19.45.54-24.45,0-53.93-6.2-76.91-16.16-26.22-11.36-40.66-25.81-40.66-40.74,0-16.41,26.82-15.55,38.61-13.19,23.31,4.67,43.47,24.16,49.09,30.03l3.71,3.74-.28-2.26c-2.21-18.65-10.21-35.64-23.15-49.15-16.61-17.35-41.27-29.33-73.29-35.65-44.18-8.7-83.5-3.57-105.89,1.09-1.98.41-8,1.95-9.34,2.48-1.03.39-.93.67.04.56.99-.12,3.34-.41,3.42-.42,14.58-2.02,57.38-5.17,96.65,5.15,28.64,7.53,44.04,15.69,60.57,27.65.07.04.06.09-.02.07-7.61-2.12-20.9-4.79-35.43-4.79-23.71,0-49.03,7.39-49.03,28.16,0,13.79,9.69,26.13,31.4,40.07,28.65,18.38,63.13,24.84,86.99,27.02,29.21,2.68,53.74-1.08,63.41-3.47,1.58-.39,1.12-.86-.43-.75"/>
      <path class="cls-1" d="m70.14,161.64c-2.33-4.12-13.04-6.58-21.34-6.58H16.22L0,194.23h20.91l8.05-18.95,16.02,18.95h22.67s-8.51-7.9-15.01-15.87c4.12-1.47,16.04-5.96,17.84-10.29.54-1.33.67-2.54.57-3.59-.11-1.15-.5-2.11-.92-2.85m-20.02,5.23c-.55,2.77-8.3,6.34-15.79,6.34h-4.49l4.56-10.71c6.72-1,12.93-1.14,15.21,1.7.36.45.79,1.19.51,2.67"/>
      <path class="cls-1" d="m375.52,162.33c-2.33-4.12-8.65-6.59-16.96-6.59h-32.61l-16.2,39.18h20.91l7.92-18.68,17.5,18.68h19.83s-10.18-8.72-17.88-15.87c4.13-1.44,16.05-5.95,17.84-10.28.55-1.32.67-2.53.57-3.58-.11-1.15-.5-2.12-.92-2.85m-15.66,5.23c-.54,2.77-8.3,6.34-15.77,6.34h-4.53l4.8-11.34c5.59,0,12.7-.53,15.02,2.34.33.44.77,1.19.48,2.67"/>
      <polygon class="cls-1" points="86.86 155.03 70.35 194.23 91.26 194.23 107.48 155.03 86.86 155.03"/>
      <path class="cls-1" d="m167.38,161.65c-2.33-4.13-8.68-6.59-16.98-6.59h-32.56l-17.46,39.17h22.12s5.51-13.31,6.02-14.54h13.12c11.93,0,23.38-5.11,26.07-11.61.55-1.33.68-2.54.57-3.59-.11-1.15-.5-2.11-.91-2.84m-15.66,5.18c-.67,2.93-7.73,6.37-15.77,6.37h-4.78c.24-.61,2.92-6.86,4.89-11.45,6.83-.72,12.98-.5,15.28,2.46.6.78.5,2.07.38,2.62"/>
      <path class="cls-1" d="m228.26,154.83c-19.58,0-43.89,9.35-48.18,19.75-1.4,3.36-1.22,6.74.49,9.77,3.69,6.53,16.34,11.08,30.71,11.08,9.43,0,20.87-3.65,28.15-6.38l1.28-8.51c-3.65,2.8-17.13,7.9-26.86,7.9-6.09,0-10.39-1.7-12.13-4.76-1.48-2.6-.78-5.59.08-7.65,2.76-6.67,12.43-14.79,25.21-14.79,9.4,0,14.83,2.81,15.81,3.3.99.47,2.98,1.88,2.98,1.88l3.62-7.74s-5.73-3.86-21.18-3.86"/>
      <path class="cls-1" d="m394.33,155.73l-14.95,37.04c-.09.23-.12.49-.09.74h0c.03.48.37,1.43,1.12,1.43h43.04l2.69-6.5h-24.14c1.56-3.74,13.51-32.71,13.51-32.71h-21.18Z"/>
      <path class="cls-1" d="m259.82,155.67l-9.79,22.47c-.91,2.22-1.14,4.15-.96,5.75.13,1.56.63,2.83,1.18,3.77,2.66,4.7,12.48,7.77,23.02,7.77,16.25,0,31-7.28,34.53-15.81l9.93-23.97h-9.7l-9.34,22.5c-1.87,4.55-11.02,8.4-20,8.4-6.11,0-8-1.73-8.57-2.74-.68-1.15-.12-3.32.23-4.18,0,0,9.98-23.93,9.8-23.95h-20.33Z"/>
    </g>
  </g>
</svg>